<svg width="60" height="26" viewBox="0 0 60 26" fill="none" xmlns="http://www.w3.org/2000/svg">
<path d="M0 5C0 2.23858 2.23858 0 5 0H55C57.7614 0 60 2.23858 60 5V26H0V5Z" fill="url(#paint0_linear_7891_70690)"/>
<path d="M16 9.95221H11.4166V5.52783L16 9.95221Z" fill="white"/>
<path d="M5 20.4724V5.52783H11.4167L15.797 9.70636V20.4724H5Z" stroke="white"/>
<path d="M29.288 10.846C29.092 9.98733 28.728 9.376 28.196 9.012C27.664 8.648 26.9687 8.466 26.11 8.466C25.5033 8.466 24.9807 8.58733 24.542 8.83C24.1033 9.07267 23.7393 9.39933 23.45 9.81C23.17 10.2207 22.96 10.6967 22.82 11.238C22.6893 11.77 22.624 12.3347 22.624 12.932C22.624 13.492 22.68 14.0427 22.792 14.584C22.9133 15.1253 23.1093 15.6107 23.38 16.04C23.6507 16.46 24.0147 16.8007 24.472 17.062C24.9293 17.3233 25.5033 17.454 26.194 17.454C26.6233 17.454 27.0153 17.384 27.37 17.244C27.7247 17.104 28.0327 16.9127 28.294 16.67C28.5647 16.418 28.7887 16.124 28.966 15.788C29.1527 15.452 29.2927 15.0833 29.386 14.682H30.38C30.268 15.1673 30.1047 15.6293 29.89 16.068C29.6753 16.4973 29.3907 16.8753 29.036 17.202C28.6907 17.5287 28.266 17.79 27.762 17.986C27.2673 18.1727 26.684 18.266 26.012 18.266C25.2373 18.266 24.5747 18.126 24.024 17.846C23.4733 17.5567 23.0207 17.1693 22.666 16.684C22.3207 16.1987 22.0687 15.6387 21.91 15.004C21.7513 14.36 21.672 13.6787 21.672 12.96C21.672 11.9987 21.7887 11.182 22.022 10.51C22.2647 9.838 22.596 9.292 23.016 8.872C23.436 8.44267 23.9307 8.13467 24.5 7.948C25.0693 7.752 25.69 7.654 26.362 7.654C26.8753 7.654 27.3513 7.724 27.79 7.864C28.238 7.99467 28.63 8.19533 28.966 8.466C29.3113 8.73667 29.5913 9.07267 29.806 9.474C30.03 9.866 30.184 10.3233 30.268 10.846H29.288ZM34.9955 18.196C34.5288 18.1867 34.0902 18.1027 33.6795 17.944C33.2782 17.7853 32.9235 17.5473 32.6155 17.23C32.3168 16.9127 32.0788 16.516 31.9015 16.04C31.7242 15.564 31.6355 15.0087 31.6355 14.374C31.6355 13.842 31.7055 13.3473 31.8455 12.89C31.9855 12.4233 32.1955 12.0173 32.4755 11.672C32.7555 11.3267 33.1055 11.056 33.5255 10.86C33.9455 10.6547 34.4355 10.552 34.9955 10.552C35.5648 10.552 36.0595 10.6547 36.4795 10.86C36.8995 11.056 37.2495 11.3267 37.5295 11.672C37.8095 12.008 38.0148 12.4093 38.1455 12.876C38.2855 13.3427 38.3555 13.842 38.3555 14.374C38.3555 14.9527 38.2762 15.4753 38.1175 15.942C37.9588 16.4087 37.7302 16.81 37.4315 17.146C37.1422 17.482 36.7875 17.7433 36.3675 17.93C35.9568 18.1073 35.4995 18.196 34.9955 18.196ZM37.4595 14.374C37.4595 13.9447 37.4128 13.5433 37.3195 13.17C37.2262 12.7967 37.0815 12.4747 36.8855 12.204C36.6895 11.924 36.4375 11.7047 36.1295 11.546C35.8215 11.3873 35.4435 11.308 34.9955 11.308C34.5568 11.308 34.1788 11.3967 33.8615 11.574C33.5535 11.742 33.3015 11.9707 33.1055 12.26C32.9095 12.54 32.7648 12.8667 32.6715 13.24C32.5782 13.604 32.5315 13.982 32.5315 14.374C32.5315 14.822 32.5828 15.2373 32.6855 15.62C32.7975 15.9933 32.9562 16.3153 33.1615 16.586C33.3668 16.8567 33.6235 17.0667 33.9315 17.216C34.2395 17.3653 34.5942 17.44 34.9955 17.44C35.4342 17.44 35.8075 17.356 36.1155 17.188C36.4328 17.0107 36.6895 16.7773 36.8855 16.488C37.0815 16.1987 37.2262 15.872 37.3195 15.508C37.4128 15.144 37.4595 14.766 37.4595 14.374ZM40.8288 14.402C40.8288 14.8127 40.8848 15.2047 40.9968 15.578C41.1088 15.942 41.2675 16.264 41.4728 16.544C41.6875 16.8147 41.9441 17.034 42.2428 17.202C42.5508 17.3607 42.8961 17.44 43.2788 17.44C43.7081 17.44 44.0815 17.356 44.3988 17.188C44.7255 17.0107 44.9915 16.7727 45.1968 16.474C45.4021 16.1753 45.5515 15.83 45.6448 15.438C45.7381 15.0367 45.7755 14.6073 45.7568 14.15C45.7568 13.6927 45.6915 13.2913 45.5608 12.946C45.4395 12.5913 45.2668 12.2927 45.0428 12.05C44.8188 11.8073 44.5575 11.6253 44.2588 11.504C43.9601 11.3733 43.6335 11.308 43.2788 11.308C42.8868 11.308 42.5368 11.3873 42.2288 11.546C41.9208 11.7047 41.6641 11.924 41.4588 12.204C41.2535 12.4747 41.0948 12.8013 40.9828 13.184C40.8801 13.5573 40.8288 13.9633 40.8288 14.402ZM40.8288 20.856H39.9888V10.748H40.8288V12.022H40.8568C40.9781 11.7887 41.1321 11.5787 41.3188 11.392C41.5148 11.2053 41.7248 11.0513 41.9488 10.93C42.1821 10.8087 42.4201 10.7153 42.6628 10.65C42.9055 10.5847 43.1435 10.552 43.3768 10.552C43.9648 10.552 44.4641 10.65 44.8748 10.846C45.2855 11.042 45.6215 11.3127 45.8828 11.658C46.1535 11.994 46.3495 12.3953 46.4708 12.862C46.5921 13.3287 46.6528 13.828 46.6528 14.36C46.6528 14.864 46.5875 15.3493 46.4568 15.816C46.3261 16.2827 46.1255 16.6933 45.8548 17.048C45.5935 17.3933 45.2575 17.6733 44.8468 17.888C44.4455 18.0933 43.9695 18.196 43.4188 18.196C42.9055 18.196 42.4108 18.084 41.9348 17.86C41.4681 17.6267 41.0995 17.286 40.8288 16.838V20.856ZM48.3934 19.974C48.5054 19.9927 48.6174 20.0113 48.7294 20.03C48.8507 20.0487 48.9721 20.058 49.0934 20.058C49.3267 20.058 49.5181 19.9833 49.6674 19.834C49.8167 19.6847 49.9381 19.5027 50.0314 19.288C50.1341 19.0827 50.2181 18.8633 50.2834 18.63C50.3487 18.406 50.4234 18.2147 50.5074 18.056L47.6934 10.748H48.6314L50.9554 16.978L53.2794 10.748H54.1894L51.4874 17.902C51.3194 18.3593 51.1561 18.77 50.9974 19.134C50.8481 19.498 50.6847 19.806 50.5074 20.058C50.3394 20.3193 50.1481 20.5153 49.9334 20.646C49.7281 20.786 49.4807 20.856 49.1914 20.856C49.0421 20.856 48.8974 20.8467 48.7574 20.828C48.6267 20.8093 48.5054 20.786 48.3934 20.758V19.974Z" fill="white"/>
<defs>
<linearGradient id="paint0_linear_7891_70690" x1="60" y1="0" x2="24.8194" y2="45.2825" gradientUnits="userSpaceOnUse">
<stop stop-color="#3746C9"/>
<stop offset="1" stop-color="#020065"/>
</linearGradient>
</defs>
</svg>
