<svg width="24" height="25" viewBox="0 0 24 25" fill="none" xmlns="http://www.w3.org/2000/svg">
<path d="M18.9283 15.8354C18.2734 15.8399 17.6281 15.9932 17.0411 16.2837C16.4541 16.5742 15.9408 16.9942 15.54 17.5122L8.8241 14.5302C9.2107 13.8786 9.41657 13.1357 9.42049 12.378C9.41641 11.9915 9.35823 11.6074 9.24763 11.2371L15.566 7.28702C16.2073 8.0811 17.1089 8.62258 18.1112 8.81553C19.1135 9.00848 20.1518 8.84044 21.0421 8.34119C21.9323 7.84194 22.6172 7.0437 22.9752 6.08787C23.3333 5.13204 23.3415 4.08031 22.9984 3.11901C22.6553 2.1577 21.9831 1.34885 21.1007 0.835752C20.2183 0.322652 19.1828 0.138417 18.1776 0.315682C17.1724 0.492947 16.2624 1.02027 15.6088 1.80424C14.9552 2.58821 14.6001 3.57822 14.6066 4.59891C14.6106 4.98542 14.6688 5.36946 14.7794 5.73984L8.46107 9.68989C7.93593 9.02608 7.22742 8.53109 6.42347 8.26635C5.61953 8.00161 4.75553 7.97877 3.93872 8.20067C3.12191 8.42257 2.38824 8.87944 1.82876 9.51458C1.26928 10.1497 0.908625 10.9352 0.791547 11.7734C0.674468 12.6117 0.806125 13.4659 1.17018 14.23C1.53423 14.9942 2.11465 15.6346 2.83941 16.0718C3.56416 16.509 4.40135 16.7237 5.24707 16.6894C6.09279 16.6551 6.90981 16.3731 7.59673 15.8786L14.7449 19.0594C14.6548 19.4184 14.6084 19.787 14.6066 20.1571C14.6066 21.0119 14.86 21.8474 15.3349 22.5581C15.8098 23.2688 16.4847 23.8227 17.2744 24.1498C18.0641 24.4769 18.9331 24.5625 19.7714 24.3958C20.6097 24.229 21.3798 23.8174 21.9842 23.213C22.5886 22.6086 23.0002 21.8386 23.167 21.0002C23.3337 20.1619 23.2481 19.2929 22.921 18.5032C22.5939 17.7136 22.04 17.0386 21.3293 16.5637C20.6186 16.0888 19.783 15.8354 18.9283 15.8354ZM18.9283 2.00587C19.4411 2.00587 19.9425 2.15795 20.3689 2.44288C20.7953 2.72781 21.1277 3.13278 21.3239 3.6066C21.5202 4.08041 21.5715 4.60178 21.4715 5.10478C21.3714 5.60778 21.1245 6.06982 20.7618 6.43246C20.3992 6.7951 19.9372 7.04206 19.4342 7.14211C18.9312 7.24217 18.4098 7.19082 17.936 6.99456C17.4622 6.7983 17.0572 6.46594 16.7723 6.03952C16.4873 5.6131 16.3352 5.11176 16.3352 4.59891C16.3352 3.91119 16.6084 3.25164 17.0947 2.76536C17.581 2.27907 18.2406 2.00587 18.9283 2.00587ZM2.50574 12.378C2.50574 11.8651 2.65782 11.3638 2.94275 10.9374C3.22767 10.511 3.63265 10.1786 4.10646 9.98235C4.58028 9.78609 5.10165 9.73474 5.60465 9.83479C6.10765 9.93485 6.56968 10.1818 6.93232 10.5445C7.29497 10.9071 7.54193 11.3691 7.64198 11.8721C7.74203 12.3751 7.69068 12.8965 7.49442 13.3703C7.29816 13.8441 6.96581 14.2491 6.53939 14.534C6.11296 14.819 5.61163 14.971 5.09877 14.971C4.41106 14.971 3.75151 14.6978 3.26522 14.2116C2.77894 13.7253 2.50574 13.0657 2.50574 12.378ZM18.9283 22.7501C18.4154 22.7501 17.9141 22.5981 17.4877 22.3131C17.0612 22.0282 16.7289 21.6232 16.5326 21.1494C16.3364 20.6756 16.285 20.1542 16.3851 19.6512C16.4851 19.1482 16.7321 18.6862 17.0947 18.3235C17.4574 17.9609 17.9194 17.7139 18.4224 17.6139C18.9254 17.5138 19.4468 17.5652 19.9206 17.7614C20.3944 17.9577 20.7994 18.2901 21.0843 18.7165C21.3692 19.1429 21.5213 19.6442 21.5213 20.1571C21.5213 20.8448 21.2481 21.5044 20.7618 21.9906C20.2755 22.4769 19.616 22.7501 18.9283 22.7501Z" fill="white"/>
</svg>
