<svg width="104" height="23" viewBox="0 0 104 23" fill="none" xmlns="http://www.w3.org/2000/svg">
<path fill-rule="evenodd" clip-rule="evenodd" d="M46.7734 22.3631C46.513 22.4661 46.2405 22.5165 45.9609 22.5165C45.208 22.5165 44.4672 22.3883 43.7627 22.1229C43.0844 21.8675 42.4617 21.5022 41.9247 21.0137C41.3878 20.5262 40.975 19.9509 40.6772 19.2908C40.3694 18.6075 40.2311 17.8808 40.2311 17.1319V2.05592C40.2311 1.48667 40.4138 1.00725 40.8145 0.601512C41.195 0.1988 41.6482 0.000976562 42.1962 0.000976562C42.4728 0.000976562 42.7473 0.0544697 43.0017 0.164484C43.2651 0.270461 43.5002 0.414791 43.7011 0.60555C43.8929 0.802364 44.0493 1.02643 44.1694 1.27876C44.2784 1.522 44.3349 1.78341 44.3349 2.05592V17.2328C44.4016 18.1785 45.1141 18.4965 45.9609 18.4965C46.2425 18.4965 46.514 18.5459 46.7744 18.6539C47.0187 18.7508 47.2337 18.8921 47.4103 19.0788C47.598 19.2686 47.7383 19.4816 47.8312 19.7238C47.9351 19.9812 47.9795 20.2426 47.9795 20.5151C47.9795 20.7886 47.9341 21.0551 47.8322 21.3094C47.7363 21.5516 47.597 21.7676 47.4143 21.9533C47.2337 22.137 47.0116 22.2682 46.7734 22.3631ZM95.7559 22.5165C97.2003 22.5165 98.5507 22.1572 99.8133 21.4537L100.039 21.3276L100.174 21.5496C100.353 21.8474 100.585 22.0926 100.887 22.2662C101.198 22.4439 101.541 22.5165 101.898 22.5165C102.183 22.5165 102.454 22.4651 102.719 22.351C102.977 22.247 103.204 22.0946 103.399 21.8978C103.81 21.4881 104 20.9925 104 20.4142V14.1524C103.978 13.0624 103.758 12.0067 103.32 11.0084C102.89 10.0284 102.293 9.1594 101.535 8.40444C100.775 7.64747 99.8971 7.05803 98.906 6.64523C97.8997 6.22637 96.846 6.02249 95.7559 6.02249C94.6568 6.02249 93.596 6.22637 92.5847 6.65633C91.5875 7.07923 90.7074 7.67371 89.9413 8.43977C89.1702 9.20987 88.5707 10.097 88.1468 11.1003C87.7168 12.1167 87.5059 13.1825 87.5059 14.2846C87.5059 15.3868 87.7148 16.4476 88.1458 17.4609C88.5697 18.4581 89.1722 19.3352 89.9403 20.0982C90.7094 20.8613 91.5875 21.4588 92.5847 21.8827C93.596 22.3127 94.6568 22.5165 95.7559 22.5165ZM29.155 13.8608H35.9274C36.2039 13.8608 36.4785 13.8073 36.7389 13.6952C36.9892 13.5943 37.2193 13.451 37.4111 13.2602C37.5998 13.0705 37.7441 12.8454 37.8491 12.6002C37.9571 12.3458 38.0116 12.0834 38.0116 11.8058C38.0116 11.5293 37.9551 11.2608 37.8481 11.0044C37.7411 10.7501 37.5958 10.517 37.4121 10.3222C37.2173 10.1274 36.9831 9.98101 36.7318 9.87201C36.4785 9.76199 36.2039 9.70345 35.9274 9.70345H29.155C28.5746 9.70345 28.0811 9.89017 27.6723 10.303C27.4775 10.4998 27.3332 10.737 27.2272 11.0004C27.1182 11.2558 27.0647 11.5293 27.0647 11.8058C27.0647 12.0824 27.1162 12.3448 27.2292 12.6022C27.3322 12.8505 27.4805 13.0705 27.6703 13.2592C28.0841 13.67 28.5726 13.8608 29.155 13.8608ZM52.4629 4.4217C52.7606 4.4217 53.0482 4.36922 53.3228 4.25214C53.5913 4.13809 53.8295 3.97559 54.0353 3.76868C54.4643 3.33569 54.6904 2.83003 54.6904 2.21738C54.6904 1.59767 54.4744 1.08192 54.0364 0.644889C53.8305 0.438991 53.5923 0.278511 53.3298 0.168497C53.0523 0.0594925 52.7616 0.00196221 52.4629 0.00196221C51.8542 0.00196221 51.3375 0.214925 50.9075 0.644889C50.4695 1.08293 50.2353 1.59464 50.2353 2.21738C50.2353 2.50705 50.3019 2.78764 50.414 3.04804C50.5361 3.31954 50.6976 3.55774 50.9075 3.76768C51.3385 4.19865 51.8522 4.4217 52.4629 4.4217ZM53.2511 22.353C52.9978 22.4661 52.7354 22.5165 52.4628 22.5165C52.1883 22.5165 51.9208 22.462 51.6695 22.353C51.4263 22.2491 51.2022 22.1037 51.0145 21.916C50.8106 21.7232 50.6572 21.4992 50.5452 21.2509C50.4362 21.0107 50.3776 20.7493 50.3776 20.4858V8.41354C50.3776 8.14608 50.4352 7.88568 50.5452 7.64243C50.6572 7.39314 50.8106 7.16907 51.0094 6.98134C51.2053 6.78654 51.4364 6.64221 51.6837 6.54027C51.9461 6.43228 52.2156 6.37677 52.4982 6.37677C52.7687 6.37677 53.025 6.43026 53.2723 6.53826C53.5236 6.64322 53.7467 6.78856 53.9354 6.9773C54.1181 7.15898 54.2574 7.37295 54.3502 7.61619C54.4552 7.87356 54.4996 8.14002 54.4996 8.41354V20.4858C54.4996 20.7503 54.4461 21.0107 54.3381 21.2519C54.2332 21.5042 54.0878 21.7273 53.8991 21.916C53.7124 22.1027 53.4954 22.2501 53.2511 22.353ZM65.5253 22.5165C66.6264 22.5165 67.6842 22.3045 68.6975 21.8766C69.6937 21.4557 70.5768 20.8632 71.3409 20.0992C72.1059 19.3331 72.7024 18.454 73.1243 17.4558C73.5512 16.4435 73.7581 15.3827 73.7581 14.2846C73.7581 13.1824 73.5482 12.1166 73.1182 11.1002C72.6954 10.1 72.1049 9.20881 71.3399 8.43871C70.5788 7.67164 69.6927 7.08221 68.6975 6.66234C67.6842 6.23339 66.6254 6.02244 65.5253 6.02244C64.8097 6.02244 64.1082 6.19402 63.4451 6.45543C62.8758 6.68051 62.241 7.00248 61.8423 7.48089L61.3679 8.04912V2.14571C61.3679 1.85301 61.3205 1.56132 61.2175 1.28679C61.1227 1.03345 60.9834 0.800303 60.8037 0.608535C60.612 0.417777 60.3869 0.274456 60.1386 0.171507C59.8802 0.063511 59.6107 0.00799931 59.3312 0.00799931C59.0546 0.00799931 58.7861 0.0614924 58.5267 0.172516C58.2774 0.274456 58.0544 0.417777 57.8697 0.602479C57.6799 0.803331 57.5336 1.04153 57.4286 1.29587C57.3166 1.56636 57.2641 1.85402 57.2641 2.14571V14.2846C57.2641 15.3868 57.472 16.4475 57.903 17.4609C58.3279 18.4591 58.9315 19.3342 59.6985 20.0982C60.4666 20.8632 61.3558 21.4587 62.354 21.8826C63.3643 22.3096 64.4281 22.5165 65.5253 22.5165ZM63.9326 18.0766C64.4413 18.2895 64.9742 18.3955 65.5253 18.3955C66.0774 18.3955 66.6153 18.2895 67.124 18.0766C67.6186 17.8697 68.0596 17.575 68.4381 17.1965C68.8227 16.8119 69.1244 16.3729 69.3354 15.8713C69.5483 15.3656 69.6543 14.8337 69.6543 14.2846C69.6543 13.7356 69.5483 13.2027 69.3354 12.697C69.1255 12.1964 68.8216 11.7553 68.4381 11.3718C68.0616 10.9953 67.6165 10.7036 67.124 10.4977C66.6153 10.2848 66.0774 10.1788 65.5253 10.1788C64.9742 10.1788 64.4413 10.2848 63.9326 10.4977C63.44 10.7046 62.9959 10.9963 62.6154 11.3698C62.2339 11.7583 61.9261 12.1984 61.7111 12.694C61.4921 13.2006 61.3851 13.7325 61.3851 14.2846C61.3851 14.8357 61.4921 15.3686 61.7111 15.8743C61.9271 16.3719 62.2309 16.8129 62.6134 17.1965C62.9929 17.576 63.437 17.8687 63.9326 18.0766ZM78.1688 22.5166C78.726 22.5166 79.1933 22.3248 79.5879 21.9332C79.7726 21.7505 79.9159 21.5406 80.0169 21.3084C80.1218 21.049 80.1703 20.7765 80.1703 20.4979V14.8206C80.1824 14.2221 80.3065 13.6498 80.5437 13.0998C80.7769 12.5588 81.1079 12.0733 81.5217 11.6534C81.9295 11.2406 82.4019 10.9075 82.9327 10.6734C83.4758 10.4342 84.045 10.311 84.6435 10.2989H84.7515C85.0351 10.2989 85.3187 10.2485 85.5822 10.1445C85.8395 10.0436 86.0747 9.90127 86.2705 9.71556C86.6783 9.30881 86.8892 8.82636 86.8892 8.25005C86.8892 7.68484 86.7348 7.17615 86.3311 6.77243C85.9082 6.34852 85.3349 6.21327 84.7515 6.21327H84.6142C83.4899 6.23548 82.4049 6.46358 81.3724 6.90565C80.361 7.34066 79.4577 7.94524 78.6725 8.71534C77.8771 9.49654 77.2554 10.4049 76.7992 11.4223C76.341 12.4447 76.1008 13.5227 76.0665 14.6359V20.4979C76.0665 20.7705 76.1179 21.0309 76.232 21.2781C76.346 21.5254 76.5085 21.7424 76.7013 21.9332C76.8931 22.1219 77.1161 22.2622 77.3604 22.3621C77.6218 22.4631 77.8882 22.5166 78.1688 22.5166ZM94.1754 18.0766C94.679 18.2875 95.2099 18.3955 95.7559 18.3955C96.31 18.3955 96.847 18.2875 97.3587 18.0766C97.8593 17.8717 98.3044 17.579 98.6859 17.1965C99.0685 16.8139 99.3672 16.3709 99.5772 15.8723C99.7901 15.3656 99.8971 14.8337 99.8971 14.2846C99.8971 13.7356 99.7911 13.2027 99.5772 12.697C99.3682 12.1984 99.0685 11.7543 98.6859 11.3718C98.3054 10.9913 97.8573 10.7016 97.3587 10.4977C96.847 10.2878 96.31 10.1788 95.7559 10.1788C95.2099 10.1788 94.679 10.2878 94.1754 10.4977C93.6818 10.7046 93.2347 10.9933 92.8562 11.3718C92.4727 11.7553 92.1719 12.1964 91.9539 12.693C91.7318 13.1976 91.6279 13.7325 91.6279 14.2846C91.6279 14.8357 91.7318 15.3706 91.9539 15.8753C92.1719 16.3719 92.4727 16.8129 92.8562 17.1965C93.2357 17.576 93.6798 17.8687 94.1754 18.0766Z" fill="white"/>
<path fill-rule="evenodd" clip-rule="evenodd" d="M17.2529 22.5166H2.04889C1.77436 22.5166 1.50386 22.4641 1.24851 22.3631C1.01233 22.2622 0.786248 22.1219 0.601545 21.9352C0.413815 21.7455 0.265447 21.5234 0.154423 21.2802C0.0494559 21.0349 0 20.7695 0 20.498C0 19.3463 0.933583 18.4127 2.08522 18.4127H9.55596L0.532279 16.1273C0.256983 16.0576 0.0936302 15.7743 0.171204 15.5011C0.246433 15.2362 0.5204 15.0807 0.786424 15.152L11.282 17.9636L1.95505 12.5788C1.67136 12.415 1.57426 12.0522 1.73822 11.7686C1.90203 11.4853 2.26442 11.3883 2.54785 11.5519L11.8755 16.9361L4.25982 9.32142C4.02818 9.08982 4.02817 8.71429 4.25979 8.48267C4.49139 8.25107 4.86688 8.25106 5.0985 8.48265L15.0295 18.4127H17.2529C18.3268 18.4127 19.3401 18.1402 20.1536 17.4155C21.1034 16.5697 21.4345 15.3889 21.4345 14.1474V8.35098C21.4345 7.11055 21.1074 5.91856 20.1526 5.07579C19.3462 4.36423 18.3076 4.12099 17.2529 4.12099H10.556C10.0037 4.12099 9.55596 4.5687 9.55596 5.12099V6.5C9.55596 7.62941 8.63245 8.55192 7.50404 8.55192C6.37463 8.55192 5.45213 7.6284 5.45213 6.5V2.01861C5.45213 1.74811 5.50057 1.48166 5.60857 1.23337C5.71455 0.990127 5.86392 0.771108 6.05266 0.582368C6.23939 0.395647 6.46345 0.254345 6.70669 0.151396C6.95599 0.0524838 7.22749 0 7.50101 0H17.2529C18.3621 0 19.4492 0.185712 20.4867 0.583378C21.4768 0.963885 22.361 1.52405 23.125 2.25983C23.9163 3.02085 24.5088 3.92417 24.9277 4.93852C25.3798 6.03665 25.5746 7.20239 25.5746 8.38732V14.1111C25.5746 15.298 25.3798 16.4587 24.9277 17.5599C24.5108 18.5722 23.9163 19.4745 23.125 20.2325C22.358 20.9673 21.4738 21.5335 20.4847 21.9221C19.4502 22.3278 18.3652 22.5166 17.2529 22.5166Z" fill="url(#paint0_linear_8278_70315)"/>
<defs>
<linearGradient id="paint0_linear_8278_70315" x1="5" y1="-4.0735e-07" x2="20.5" y2="23" gradientUnits="userSpaceOnUse">
<stop stop-color="#16D2DF"/>
<stop offset="1" stop-color="#2190EB"/>
</linearGradient>
</defs>
</svg>
