<svg width="26" height="23" viewBox="0 0 26 23" fill="none" xmlns="http://www.w3.org/2000/svg">
<path d="M4.66563 12.113C4.68126 12.3875 4.70626 12.661 4.74376 12.9324C5.36876 17.3497 9.52086 21.0691 14.298 20.9498C18.473 20.845 22.4022 17.7034 23.2657 13.544C24.1188 9.43404 21.8053 4.89022 17.8188 3.16932C16.6365 2.6584 15.348 2.40037 14.0521 2.39625C14.0521 2.39625 13.274 2.26775 13.0719 1.71468C12.8688 1.1575 13.2563 0.455365 13.8771 0.349479C13.9782 0.332003 14.0157 0.334059 14.1292 0.334059C18.4573 0.375179 22.598 2.98222 24.4428 6.8198C26.5115 11.1251 25.4938 16.6959 21.8313 20.0216C18.9313 22.6543 14.6063 23.6782 10.7657 22.5392C6.23335 21.1966 2.78542 16.9519 2.57396 12.0915L2.25833 12.4029C2.25833 12.4029 1.92708 12.7093 1.50937 12.7052C0.726036 12.698 0.145826 11.6227 0.752078 10.975C0.761453 10.9647 0.770828 10.9555 0.781245 10.9452L2.86979 8.88405C2.96042 8.7977 2.98021 8.78742 3.02813 8.75555C3.15313 8.67331 3.29688 8.61779 3.4448 8.59415C3.5125 8.58387 3.58125 8.58078 3.65 8.58284C3.87605 8.59518 4.05834 8.64555 4.25313 8.80078C4.27917 8.82237 4.30522 8.84396 4.33022 8.8676C4.33542 8.87274 4.34167 8.87788 4.34688 8.88405L6.43647 10.9452C6.99585 11.5199 6.60835 12.662 5.75001 12.7041C5.45939 12.7185 5.16772 12.6003 4.95938 12.4029L4.66563 12.113ZM14.1209 4.45948C14.3219 4.47901 14.3542 4.49649 14.4396 4.53041C14.7855 4.66508 15.0448 4.99199 15.0917 5.36002C15.099 5.41656 15.098 5.43095 15.1 5.48852V11.2475L19.2261 15.3194C19.2261 15.3194 19.8094 16.2724 19.1782 16.8213C18.8178 17.1349 18.2313 17.1575 17.8469 16.8625C17.8011 16.8275 17.7907 16.8162 17.748 16.7771L13.3167 12.4029C13.1271 12.2056 13.0188 11.9475 13.0105 11.6741V5.48852C13.0167 5.29011 13.0334 5.25722 13.0615 5.16984C13.1834 4.80078 13.5313 4.51499 13.924 4.46565C14.05 4.45023 14.0802 4.45845 14.1209 4.45948Z" fill="white"/>
</svg>
