<svg width="25" height="22" viewBox="0 0 25 22" fill="none" xmlns="http://www.w3.org/2000/svg">
<path d="M12.4167 21.6086C12.2692 21.6086 12.1208 21.5731 11.9845 21.5031C10.4611 20.7085 8.76824 20.2935 7.05 20.2935C5.33175 20.2935 3.63892 20.7085 2.11547 21.5031C1.9731 21.5769 1.81416 21.6128 1.6539 21.6075C1.49364 21.6021 1.33746 21.5556 1.20035 21.4725C1.06323 21.3894 0.949798 21.2724 0.870934 21.1328C0.792069 20.9932 0.750424 20.8356 0.75 20.6753V2.94195C0.749992 2.7914 0.786402 2.64309 0.856124 2.50966C0.925845 2.37623 1.02681 2.26165 1.1504 2.17568C4.67933 -0.279915 9.42066 -0.279915 12.9505 2.17568C13.2007 2.35022 13.35 2.63675 13.35 2.94195V20.6753C13.35 20.9228 13.2517 21.1602 13.0766 21.3352C12.9016 21.5103 12.6642 21.6086 12.4167 21.6086ZM7.05 18.4269C8.55266 18.4269 10.0563 18.6966 11.4833 19.2361V3.44595C10.1481 2.63108 8.6142 2.19997 7.05 2.19997C5.48579 2.19997 3.95185 2.63108 2.61667 3.44595V19.2361C4.03345 18.7008 5.53548 18.4267 7.05 18.4269Z" fill="white"/>
<path d="M23.1491 21.6086C23.0016 21.6086 22.8532 21.5731 22.717 21.5031C21.1935 20.7085 19.5007 20.2935 17.7824 20.2935C16.0642 20.2935 14.3713 20.7085 12.8479 21.5031C12.7055 21.5769 12.5466 21.6128 12.3863 21.6075C12.2261 21.6021 12.0699 21.5556 11.9328 21.4725C11.7957 21.3894 11.6822 21.2724 11.6034 21.1328C11.5245 20.9932 11.4828 20.8356 11.4824 20.6753V2.94195C11.4824 2.7914 11.5188 2.64309 11.5885 2.50966C11.6583 2.37623 11.7592 2.26165 11.8828 2.17568C15.4118 -0.279915 20.1531 -0.279915 23.6829 2.17568C23.9331 2.35022 24.0824 2.63675 24.0824 2.94195V20.6753C24.0824 20.9228 23.9841 21.1602 23.809 21.3352C23.634 21.5103 23.3966 21.6086 23.1491 21.6086ZM17.7824 18.4269C19.2851 18.4269 20.7887 18.6966 22.2157 19.2361V3.44595C20.8806 2.63108 19.3466 2.19997 17.7824 2.19997C16.2182 2.19997 14.6843 2.63108 13.3491 3.44595V19.2361C14.7659 18.7008 16.2679 18.4267 17.7824 18.4269Z" fill="white"/>
</svg>
