<svg width="187" height="41" viewBox="0 0 187 41" fill="none" xmlns="http://www.w3.org/2000/svg">
<path fill-rule="evenodd" clip-rule="evenodd" d="M84.1023 40.7206C83.634 40.9081 83.144 41 82.6413 41C81.2875 41 79.9554 40.7666 78.6887 40.2832C77.4691 39.8183 76.3494 39.153 75.3839 38.2635C74.4184 37.3758 73.6762 36.3282 73.1408 35.1263C72.5873 33.8821 72.3387 32.5589 72.3387 31.1952V3.74364C72.3387 2.70711 72.6672 1.83414 73.3876 1.09534C74.0718 0.362044 74.8867 0.00183105 75.8721 0.00183105C76.3694 0.00183105 76.863 0.0992357 77.3203 0.299558C77.794 0.49253 78.2168 0.755339 78.578 1.10269C78.9228 1.46106 79.2041 1.86906 79.42 2.32852C79.616 2.77143 79.7177 3.24743 79.7177 3.74364V31.379C79.8375 33.101 81.1187 33.6799 82.6413 33.6799C83.1477 33.6799 83.6358 33.77 84.1041 33.9666C84.5433 34.1431 84.9298 34.4004 85.2474 34.7404C85.5849 35.0859 85.8372 35.4737 86.0042 35.9147C86.1911 36.3834 86.2709 36.8594 86.2709 37.3556C86.2709 37.8536 86.1893 38.3388 86.006 38.802C85.8336 39.243 85.5831 39.6363 85.2547 39.9745C84.9298 40.309 84.5305 40.5479 84.1023 40.7206ZM172.177 41C174.774 41 177.202 40.3457 179.472 39.0648L179.879 38.835L180.12 39.2394C180.443 39.7815 180.86 40.2281 181.403 40.5442C181.962 40.8677 182.579 41 183.22 41C183.733 41 184.22 40.9063 184.697 40.6986C185.16 40.5093 185.568 40.2318 185.92 39.8734C186.659 39.1273 187 38.2249 187 37.1718V25.77C186.96 23.7851 186.564 21.8627 185.777 20.0451C185.004 18.2606 183.931 16.6782 182.568 15.3036C181.202 13.9252 179.623 12.8519 177.841 12.1002C176.031 11.3375 174.137 10.9663 172.177 10.9663C170.2 10.9663 168.293 11.3375 166.475 12.1204C164.681 12.8905 163.099 13.973 161.722 15.3679C160.335 16.7701 159.257 18.3856 158.495 20.2124C157.722 22.0631 157.342 24.0038 157.342 26.0107C157.342 28.0176 157.718 29.9492 158.493 31.7943C159.255 33.6101 160.339 35.2072 161.72 36.5966C163.103 37.986 164.681 39.074 166.475 39.8458C168.293 40.6288 170.2 41 172.177 41ZM52.4229 25.2389H64.6003C65.0975 25.2389 65.5911 25.1415 66.0594 24.9375C66.5094 24.7537 66.9232 24.4927 67.268 24.1454C67.6074 23.7999 67.8669 23.39 68.0556 22.9434C68.2498 22.4803 68.3478 22.0025 68.3478 21.4971C68.3478 20.9935 68.2462 20.5047 68.0538 20.0378C67.8615 19.5747 67.6001 19.1502 67.2698 18.7955C66.9196 18.4408 66.4985 18.1743 66.0467 17.9758C65.5911 17.7755 65.0975 17.6689 64.6003 17.6689H52.4229C51.3794 17.6689 50.4919 18.0089 49.7569 18.7606C49.4067 19.1189 49.1472 19.5508 48.9566 20.0305C48.7606 20.4955 48.6644 20.9935 48.6644 21.4971C48.6644 22.0006 48.757 22.4785 48.9602 22.9471C49.1454 23.3992 49.4121 23.7999 49.7533 24.1435C50.4974 24.8915 51.3758 25.2389 52.4229 25.2389ZM94.3323 8.05145C94.8677 8.05145 95.3849 7.95589 95.8785 7.7427C96.3613 7.53503 96.7895 7.23914 97.1598 6.86238C97.9311 6.07396 98.3376 5.15321 98.3376 4.03765C98.3376 2.90922 97.9492 1.9701 97.1616 1.17432C96.7914 0.799403 96.3631 0.507189 95.8912 0.306867C95.3921 0.108382 94.8695 0.0036258 94.3323 0.0036258C93.238 0.0036258 92.3088 0.391407 91.5357 1.17432C90.7481 1.97193 90.327 2.90371 90.327 4.03765C90.327 4.5651 90.4468 5.07602 90.6482 5.55018C90.8678 6.04455 91.1582 6.47828 91.5357 6.86054C92.3106 7.64529 93.2343 8.05145 94.3323 8.05145ZM95.7496 40.7023C95.2941 40.9081 94.8223 41 94.3323 41C93.8387 41 93.3577 40.9008 92.9058 40.7023C92.4685 40.513 92.0656 40.2484 91.728 39.9065C91.3614 39.5555 91.0856 39.1475 90.8841 38.6954C90.6881 38.258 90.5829 37.782 90.5829 37.3023V15.3201C90.5829 14.8331 90.6863 14.3589 90.8841 13.916C91.0856 13.4621 91.3614 13.0541 91.719 12.7122C92.071 12.3575 92.4866 12.0947 92.9313 11.9091C93.4031 11.7125 93.8877 11.6114 94.3958 11.6114C94.8822 11.6114 95.3431 11.7088 95.7878 11.9054C96.2396 12.0966 96.6407 12.3612 96.9801 12.7049C97.3086 13.0357 97.559 13.4253 97.726 13.8682C97.9147 14.3369 97.9946 14.8221 97.9946 15.3201V37.3023C97.9946 37.7838 97.8984 38.258 97.7042 38.6972C97.5155 39.1567 97.2541 39.5628 96.9148 39.9065C96.579 40.2465 96.1888 40.5148 95.7496 40.7023ZM117.82 40.9999C119.799 40.9999 121.701 40.614 123.523 39.8347C125.315 39.0684 126.903 37.9896 128.276 36.5983C129.652 35.2034 130.725 33.6027 131.483 31.7851C132.251 29.9417 132.623 28.0102 132.623 26.0106C132.623 24.0037 132.245 22.063 131.472 20.2123C130.712 18.391 129.65 16.7682 128.275 15.366C126.906 13.9692 125.313 12.8959 123.523 12.1314C121.701 11.3503 119.798 10.9662 117.82 10.9662C116.533 10.9662 115.272 11.2786 114.079 11.7546C113.056 12.1645 111.914 12.7507 111.197 13.6219L110.344 14.6566V3.90713C110.344 3.37416 110.259 2.84303 110.074 2.34314C109.903 1.88185 109.653 1.45731 109.33 1.10812C108.985 0.760775 108.58 0.499804 108.134 0.312346C107.669 0.115699 107.185 0.0146186 106.682 0.0146186C106.185 0.0146186 105.702 0.112023 105.236 0.314184C104.787 0.499804 104.386 0.760775 104.054 1.0971C103.713 1.46282 103.45 1.89655 103.261 2.35968C103.06 2.85222 102.965 3.376 102.965 3.90713V26.0106C102.965 28.0175 103.339 29.9491 104.114 31.7943C104.878 33.6119 105.963 35.2053 107.343 36.5965C108.724 37.9896 110.323 39.0739 112.117 39.8458C113.934 40.6232 115.847 40.9999 117.82 40.9999ZM114.956 32.9154C115.87 33.3032 116.829 33.4961 117.82 33.4961C118.812 33.4961 119.78 33.3032 120.694 32.9154C121.583 32.5386 122.377 32.002 123.057 31.3128C123.749 30.6126 124.291 29.8131 124.67 28.8997C125.053 27.979 125.244 27.0105 125.244 26.0107C125.244 25.0109 125.053 24.0405 124.67 23.1198C124.293 22.2082 123.747 21.4051 123.057 20.7067C122.38 20.0212 121.58 19.4901 120.694 19.1152C119.78 18.7274 118.812 18.5344 117.82 18.5344C116.829 18.5344 115.87 18.7274 114.956 19.1152C114.07 19.4919 113.272 20.023 112.587 20.703C111.901 21.4106 111.348 22.2119 110.961 23.1143C110.568 24.0369 110.375 25.0054 110.375 26.0107C110.375 27.0141 110.568 27.9845 110.961 28.9053C111.35 29.8113 111.896 30.6144 112.584 31.3128C113.266 32.0038 114.065 32.5368 114.956 32.9154ZM140.554 41C141.555 41 142.396 40.6509 143.105 39.9378C143.437 39.6051 143.695 39.2229 143.877 38.8002C144.065 38.3279 144.152 37.8316 144.152 37.3244V26.9866C144.174 25.8968 144.397 24.8548 144.824 23.8532C145.243 22.8681 145.838 21.9841 146.582 21.2196C147.316 20.4679 148.165 19.8614 149.12 19.435C150.096 18.9995 151.119 18.7752 152.196 18.7532H152.39C152.9 18.7532 153.41 18.6613 153.883 18.472C154.346 18.2882 154.769 18.0291 155.121 17.6909C155.854 16.9503 156.234 16.0718 156.234 15.0224C156.234 13.9932 155.956 13.067 155.23 12.3318C154.47 11.56 153.439 11.3137 152.39 11.3137H152.143C150.121 11.3541 148.17 11.7695 146.314 12.5744C144.495 13.3665 142.871 14.4674 141.459 15.8697C140.029 17.2921 138.911 18.9462 138.091 20.7987C137.267 22.6604 136.835 24.6232 136.773 26.6503V37.3244C136.773 37.8206 136.866 38.2948 137.071 38.745C137.276 39.1953 137.568 39.5904 137.915 39.9378C138.26 40.2815 138.661 40.5369 139.1 40.7189C139.57 40.9026 140.049 41 140.554 41ZM169.335 32.9154C170.24 33.2995 171.195 33.4961 172.177 33.4961C173.173 33.4961 174.138 33.2995 175.059 32.9154C175.959 32.5423 176.759 32.0093 177.445 31.3128C178.133 30.6163 178.67 29.8095 179.047 28.9016C179.43 27.979 179.623 27.0105 179.623 26.0107C179.623 25.0109 179.432 24.0405 179.047 23.1198C178.672 22.2119 178.133 21.4033 177.445 20.7067C176.761 20.0139 175.955 19.4864 175.059 19.1152C174.138 18.7329 173.173 18.5344 172.177 18.5344C171.195 18.5344 170.24 18.7329 169.335 19.1152C168.447 19.4919 167.643 20.0175 166.963 20.7067C166.273 21.4051 165.732 22.2082 165.34 23.1124C164.941 24.0313 164.754 25.0054 164.754 26.0107C164.754 27.0141 164.941 27.9882 165.34 28.9071C165.732 29.8113 166.273 30.6144 166.963 31.3128C167.645 32.0038 168.444 32.5368 169.335 32.9154Z" fill="#033E8A"/>
<path fill-rule="evenodd" clip-rule="evenodd" d="M31.0221 41H3.68406C3.19043 41 2.70406 40.9044 2.24492 40.7206C1.82025 40.5369 1.41373 40.2814 1.08163 39.9414C0.744071 39.5959 0.477294 39.1916 0.277665 38.7487C0.0889255 38.3021 0 37.8187 0 37.3244C0 35.2274 1.69995 33.5274 3.79694 33.5274H17.1824L0.961281 29.367C0.463027 29.2392 0.16737 28.7266 0.306246 28.2314C0.442143 27.7467 0.943338 27.4622 1.42912 27.594L20.2859 32.7096L3.51102 22.902C3.00168 22.6043 2.8271 21.9519 3.11963 21.4395C3.41643 20.9197 4.08042 20.7419 4.59721 21.044L21.353 30.8387L7.64998 16.9636C7.23723 16.5457 7.23721 15.8735 7.64993 15.4556C8.07005 15.0301 8.75686 15.0301 9.177 15.4555L27.0243 33.5274H31.0221C32.953 33.5274 34.7751 33.0312 36.2378 31.7116C37.9456 30.1715 38.5408 28.0213 38.5408 25.7608V15.2062C38.5408 12.9475 37.9528 10.777 36.236 9.24241C34.786 7.94675 32.9186 7.50383 31.0221 7.50383H18.1824C17.6301 7.50383 17.1824 7.95155 17.1824 8.50383V11.8357C17.1824 13.8923 15.5218 15.572 13.4929 15.572C11.4621 15.572 9.80335 13.8904 9.80335 11.8357V3.67565C9.80335 3.18311 9.89046 2.69792 10.0846 2.24582C10.2752 1.8029 10.5438 1.4041 10.8832 1.06042C11.2189 0.720427 11.6218 0.463131 12.0592 0.275674C12.5074 0.0955668 12.9956 0 13.4874 0H31.0221C33.0166 0 34.9711 0.338159 36.8367 1.06226C38.6171 1.75512 40.2068 2.77511 41.5806 4.11489C43.0034 5.50061 44.0687 7.14546 44.8219 8.99247C45.6349 10.992 45.9852 13.1147 45.9852 15.2723V25.6946C45.9852 27.8559 45.6349 29.9694 44.8219 31.9745C44.0724 33.8178 43.0034 35.4608 41.5806 36.841C40.2014 38.1789 38.6116 39.21 36.8331 39.9175C34.9729 40.6563 33.022 41 31.0221 41Z" fill="url(#paint0_linear_8278_70375)"/>
<defs>
<linearGradient id="paint0_linear_8278_70375" x1="8.99039" y1="-7.41736e-07" x2="37.3459" y2="41.5491" gradientUnits="userSpaceOnUse">
<stop stop-color="#16D2DF"/>
<stop offset="1" stop-color="#2190EB"/>
</linearGradient>
</defs>
</svg>
